# xmcd CD database file
#
# Track frame offsets:
#	150
#	21048
#	33933
#	46757
#	56573
#	73468
#	88230
#	96235
#	111268
#	127240
#	135295
#	154343
#	162915
#
# Disc length: 2289 seconds
#
# Revision: 1
# Processed by: cddbd v1.5.1PL0 Copyright (c) Steve Scherf et al.
# Submitted via: CDex 1.51
#
DISCID=b408ef0d
DTITLE=David Wilson - September Song
DYEAR=2003
DGENRE=New Age
TTITLE0=When I Fall In Love 
TTITLE1=Under Paris Skies 
TTITLE2=La Vie En Rose
TTITLE3=My Funny Valentine 
TTITLE4=Theme From "summer Place" 
TTITLE5=O Sole Mio 
TTITLE6=Moon River 
TTITLE7=Charade 
TTITLE8=Swan Lake 
TTITLE9=Return To Sorrento 
TTITLE10=Barcarole From "Tales Of Hoffman"
TTITLE11=Romance In F 
TTITLE12=The Swan 
EXTD=YEAR: 2003
EXTT0=
EXTT1=
EXTT2=
EXTT3=
EXTT4=
EXTT5=
EXTT6=
EXTT7=
EXTT8=
EXTT9=
EXTT10=
EXTT11=
EXTT12=
PLAYORDER=
